<svg width="462" height="460" viewBox="0 0 462 460" fill="none" xmlns="http://www.w3.org/2000/svg">
<path d="M32.9597 75.3771L95.3203 30.1757L178.925 1.66408M26.3249 93.9714L107.269 38.8526L210.108 1M11.065 121.863L119.127 52.7406L243.945 8.30489M5.75715 150.418L126.134 67.5525L265.177 14.2816M2.43977 174.989L133.592 82.4221L285.081 22.9147M1 194.824L142.215 95.8123L304.322 33.54M2.43978 216.397L154.275 111.372L326.88 47.4868M5.75719 240.364L167.494 131.518L351.429 65.4159M11.065 267.462L177.975 154.179L369.597 83.0109M15.0459 290.434L193.72 177.91L396.545 110.573M15.0458 320.771L201.217 200.57L412.468 128.504M15.0458 352.634L211.469 226.203L434.363 150.418M27.6519 375.744L224.371 250.196L447.633 174.989M53.5275 391.592L244.314 271.857L460.902 200.224M93.9995 407.42L265.867 296.97L460.902 230.772M119.875 415.925L276.915 315.063L447.633 261.984M152.386 427.21L286.106 338.603L424.411 295.852M180.252 435.202L292.033 357.377L407.161 319.095M206.127 440.798L291.503 380.278L379.295 350.307M222.714 451.826L290.856 401.895L360.717 376.87M237.311 459.199L281.409 428.893L326.88 414.058M217.772 3.28568C244.332 6.52526 269.268 16.6144 293.307 28.3725C316.365 39.6501 336.975 54.5482 356.547 71.1625C376.509 88.1085 393.852 107.169 410.217 127.616C428.905 150.965 456.508 171.367 460.48 201.019C464.421 230.441 445.121 258.097 431.207 284.313C418.563 308.135 399.321 326.966 382.461 348.011C365.955 368.614 351.432 390.311 331.987 408.162C310.527 427.863 290.518 454.523 261.722 458.855C232.721 463.217 207.005 439.86 178.992 431.174C153.528 423.278 127.51 419.307 102.701 409.544C75.1192 398.69 40.6733 394.529 23.8366 370.116C6.8227 345.446 18.1825 311.189 14.3644 281.457C10.9898 255.179 2.59707 230.053 2.44755 203.559C2.29085 175.791 4.45169 147.966 13.4628 121.703C22.9272 94.1199 35.0341 66.1824 56.3913 46.3426C77.7741 26.479 106.562 16.5536 134.751 9.03274C161.785 1.81998 189.999 -0.101834 217.772 3.28568Z" stroke="white"/>
</svg>
