<svg width="90" height="49" viewBox="0 0 90 49" fill="none" xmlns="http://www.w3.org/2000/svg">
<circle cx="33.445" cy="24.445" r="23.445" stroke="white" stroke-width="2"/>
<path d="M24.4609 28.9697C23.8952 29.7074 23.111 30.266 22.1084 30.6455C21.1058 31.0251 19.9671 31.2148 18.6924 31.2148C17.3818 31.2148 16.2217 30.9176 15.2119 30.3232C14.2021 29.7288 13.4215 28.8802 12.8701 27.7773C12.3258 26.6673 12.043 25.3747 12.0215 23.8994V22.6748C12.0215 20.3115 12.5872 18.4674 13.7188 17.1426C14.8503 15.8105 16.4294 15.1445 18.4561 15.1445C20.1963 15.1445 21.5785 15.5742 22.6025 16.4336C23.6266 17.293 24.2425 18.5319 24.4502 20.1504H21.7861C21.4854 18.2669 20.3932 17.3252 18.5098 17.3252C17.2923 17.3252 16.3649 17.7656 15.7275 18.6465C15.0973 19.5202 14.7715 20.8057 14.75 22.5029V23.7061C14.75 25.3962 15.1045 26.7103 15.8135 27.6484C16.5296 28.5794 17.5215 29.0449 18.7891 29.0449C20.1784 29.0449 21.1667 28.7298 21.7539 28.0996V25.0381H18.5312V22.9756H24.4609V28.9697ZM36.2021 27.3584H30.1436L28.876 31H26.0508L31.959 15.3594H34.3975L40.3164 31H37.4805L36.2021 27.3584ZM30.9062 25.167H35.4395L33.1729 18.6787L30.9062 25.167ZM42.0996 31V15.3594H47.46C49.2288 15.3594 50.5752 15.7139 51.499 16.4229C52.4229 17.1318 52.8848 18.1882 52.8848 19.5918C52.8848 20.3079 52.6914 20.9525 52.3047 21.5254C51.918 22.0983 51.3522 22.5423 50.6074 22.8574C51.4525 23.0866 52.1042 23.5199 52.5625 24.1572C53.028 24.7874 53.2607 25.5465 53.2607 26.4346C53.2607 27.9027 52.7881 29.0306 51.8428 29.8184C50.9046 30.6061 49.5583 31 47.8037 31H42.0996ZM44.8174 23.9424V28.8301H47.8359C48.6882 28.8301 49.3542 28.6188 49.834 28.1963C50.3138 27.7738 50.5537 27.1865 50.5537 26.4346C50.5537 24.8089 49.723 23.9782 48.0615 23.9424H44.8174ZM44.8174 21.9443H47.4814C48.3265 21.9443 48.9854 21.7546 49.458 21.375C49.9378 20.9883 50.1777 20.444 50.1777 19.7422C50.1777 18.9688 49.9557 18.4102 49.5117 18.0664C49.0749 17.7227 48.391 17.5508 47.46 17.5508H44.8174V21.9443ZM64.3252 31H61.6182V15.3594H64.3252V31ZM78.6445 17.5508H73.7676V31H71.0713V17.5508H66.2373V15.3594H78.6445V17.5508Z" fill="white"/>
</svg>
